<mxfile host="app.diagrams.net" agent="Mozilla/5.0 (Windows NT 10.0; Win64; x64) AppleWebKit/537.36 (KHTML, like Gecko) Chrome/136.0.0.0 Safari/537.36" version="27.0.6">
  <diagram name="Halaman-1" id="aa8lYuBcsNX30R0nmAEK">
    <mxGraphModel dx="902" dy="495" grid="1" gridSize="10" guides="1" tooltips="1" connect="1" arrows="1" fold="1" page="1" pageScale="1" pageWidth="827" pageHeight="1169" math="0" shadow="0">
      <root>
        <mxCell id="0" />
        <mxCell id="1" parent="0" />
        <mxCell id="FZAGzt3g0B7Yy9wffg4Y-1" value="Superadmin" style="shape=umlActor;verticalLabelPosition=bottom;verticalAlign=top;html=1;outlineConnect=0;" parent="1" vertex="1">
          <mxGeometry x="170" y="207" width="30" height="60" as="geometry" />
        </mxCell>
        <mxCell id="FZAGzt3g0B7Yy9wffg4Y-2" value="Siswa/i" style="shape=umlActor;verticalLabelPosition=bottom;verticalAlign=top;html=1;outlineConnect=0;" parent="1" vertex="1">
          <mxGeometry x="180" y="460" width="30" height="60" as="geometry" />
        </mxCell>
        <mxCell id="FZAGzt3g0B7Yy9wffg4Y-36" value="" style="edgeStyle=orthogonalEdgeStyle;rounded=0;orthogonalLoop=1;jettySize=auto;html=1;" parent="1" source="FZAGzt3g0B7Yy9wffg4Y-3" target="FZAGzt3g0B7Yy9wffg4Y-33" edge="1">
          <mxGeometry relative="1" as="geometry" />
        </mxCell>
        <mxCell id="FZAGzt3g0B7Yy9wffg4Y-41" value="" style="edgeStyle=orthogonalEdgeStyle;rounded=0;orthogonalLoop=1;jettySize=auto;html=1;" parent="1" source="FZAGzt3g0B7Yy9wffg4Y-3" target="FZAGzt3g0B7Yy9wffg4Y-33" edge="1">
          <mxGeometry relative="1" as="geometry" />
        </mxCell>
        <mxCell id="FZAGzt3g0B7Yy9wffg4Y-42" style="edgeStyle=orthogonalEdgeStyle;rounded=0;orthogonalLoop=1;jettySize=auto;html=1;entryX=1;entryY=0.5;entryDx=0;entryDy=0;" parent="1" source="FZAGzt3g0B7Yy9wffg4Y-3" target="FZAGzt3g0B7Yy9wffg4Y-37" edge="1">
          <mxGeometry relative="1" as="geometry" />
        </mxCell>
        <mxCell id="FZAGzt3g0B7Yy9wffg4Y-43" style="edgeStyle=orthogonalEdgeStyle;rounded=0;orthogonalLoop=1;jettySize=auto;html=1;entryX=1;entryY=0.5;entryDx=0;entryDy=0;" parent="1" source="FZAGzt3g0B7Yy9wffg4Y-3" target="FZAGzt3g0B7Yy9wffg4Y-38" edge="1">
          <mxGeometry relative="1" as="geometry" />
        </mxCell>
        <mxCell id="FZAGzt3g0B7Yy9wffg4Y-44" style="edgeStyle=orthogonalEdgeStyle;rounded=0;orthogonalLoop=1;jettySize=auto;html=1;entryX=1;entryY=0.5;entryDx=0;entryDy=0;" parent="1" source="FZAGzt3g0B7Yy9wffg4Y-3" target="FZAGzt3g0B7Yy9wffg4Y-39" edge="1">
          <mxGeometry relative="1" as="geometry" />
        </mxCell>
        <mxCell id="FZAGzt3g0B7Yy9wffg4Y-3" value="Guru" style="shape=umlActor;verticalLabelPosition=bottom;verticalAlign=top;html=1;outlineConnect=0;" parent="1" vertex="1">
          <mxGeometry x="750" y="140" width="30" height="60" as="geometry" />
        </mxCell>
        <mxCell id="FZAGzt3g0B7Yy9wffg4Y-4" value="Login" style="ellipse;whiteSpace=wrap;html=1;" parent="1" vertex="1">
          <mxGeometry x="460" y="267" width="80" height="70" as="geometry" />
        </mxCell>
        <mxCell id="FZAGzt3g0B7Yy9wffg4Y-5" value="Akun" style="ellipse;whiteSpace=wrap;html=1;" parent="1" vertex="1">
          <mxGeometry x="300" y="90" width="80" height="40" as="geometry" />
        </mxCell>
        <mxCell id="FZAGzt3g0B7Yy9wffg4Y-6" value="Kursus" style="ellipse;whiteSpace=wrap;html=1;" parent="1" vertex="1">
          <mxGeometry x="300" y="140" width="80" height="40" as="geometry" />
        </mxCell>
        <mxCell id="FZAGzt3g0B7Yy9wffg4Y-7" value="Pelajaran" style="ellipse;whiteSpace=wrap;html=1;" parent="1" vertex="1">
          <mxGeometry x="300" y="190" width="80" height="40" as="geometry" />
        </mxCell>
        <mxCell id="FZAGzt3g0B7Yy9wffg4Y-8" value="Materi" style="ellipse;whiteSpace=wrap;html=1;" parent="1" vertex="1">
          <mxGeometry x="300" y="247" width="80" height="40" as="geometry" />
        </mxCell>
        <mxCell id="FZAGzt3g0B7Yy9wffg4Y-9" value="Quiz" style="ellipse;whiteSpace=wrap;html=1;" parent="1" vertex="1">
          <mxGeometry x="300" y="300" width="80" height="40" as="geometry" />
        </mxCell>
        <mxCell id="FZAGzt3g0B7Yy9wffg4Y-10" value="Penilaian" style="ellipse;whiteSpace=wrap;html=1;" parent="1" vertex="1">
          <mxGeometry x="300" y="350" width="80" height="40" as="geometry" />
        </mxCell>
        <mxCell id="FZAGzt3g0B7Yy9wffg4Y-13" value="" style="endArrow=classic;html=1;rounded=0;entryX=-0.002;entryY=0.757;entryDx=0;entryDy=0;entryPerimeter=0;" parent="1" source="FZAGzt3g0B7Yy9wffg4Y-1" target="FZAGzt3g0B7Yy9wffg4Y-5" edge="1">
          <mxGeometry width="50" height="50" relative="1" as="geometry">
            <mxPoint x="390" y="290" as="sourcePoint" />
            <mxPoint x="440" y="240" as="targetPoint" />
          </mxGeometry>
        </mxCell>
        <mxCell id="FZAGzt3g0B7Yy9wffg4Y-15" value="" style="endArrow=classic;html=1;rounded=0;entryX=0;entryY=0.5;entryDx=0;entryDy=0;" parent="1" source="FZAGzt3g0B7Yy9wffg4Y-1" target="FZAGzt3g0B7Yy9wffg4Y-6" edge="1">
          <mxGeometry width="50" height="50" relative="1" as="geometry">
            <mxPoint x="210" y="232" as="sourcePoint" />
            <mxPoint x="310" y="130" as="targetPoint" />
          </mxGeometry>
        </mxCell>
        <mxCell id="FZAGzt3g0B7Yy9wffg4Y-16" value="" style="endArrow=classic;html=1;rounded=0;" parent="1" source="FZAGzt3g0B7Yy9wffg4Y-1" target="FZAGzt3g0B7Yy9wffg4Y-7" edge="1">
          <mxGeometry width="50" height="50" relative="1" as="geometry">
            <mxPoint x="220" y="242" as="sourcePoint" />
            <mxPoint x="320" y="140" as="targetPoint" />
          </mxGeometry>
        </mxCell>
        <mxCell id="FZAGzt3g0B7Yy9wffg4Y-17" value="" style="endArrow=classic;html=1;rounded=0;" parent="1" source="FZAGzt3g0B7Yy9wffg4Y-1" target="FZAGzt3g0B7Yy9wffg4Y-8" edge="1">
          <mxGeometry width="50" height="50" relative="1" as="geometry">
            <mxPoint x="230" y="252" as="sourcePoint" />
            <mxPoint x="330" y="150" as="targetPoint" />
          </mxGeometry>
        </mxCell>
        <mxCell id="FZAGzt3g0B7Yy9wffg4Y-18" value="" style="endArrow=classic;html=1;rounded=0;entryX=0;entryY=0;entryDx=0;entryDy=0;" parent="1" source="FZAGzt3g0B7Yy9wffg4Y-1" target="FZAGzt3g0B7Yy9wffg4Y-9" edge="1">
          <mxGeometry width="50" height="50" relative="1" as="geometry">
            <mxPoint x="210" y="250" as="sourcePoint" />
            <mxPoint x="313" y="270" as="targetPoint" />
          </mxGeometry>
        </mxCell>
        <mxCell id="FZAGzt3g0B7Yy9wffg4Y-20" value="" style="endArrow=classic;html=1;rounded=0;entryX=0.016;entryY=0.243;entryDx=0;entryDy=0;entryPerimeter=0;" parent="1" source="FZAGzt3g0B7Yy9wffg4Y-1" target="FZAGzt3g0B7Yy9wffg4Y-10" edge="1">
          <mxGeometry width="50" height="50" relative="1" as="geometry">
            <mxPoint x="220" y="260" as="sourcePoint" />
            <mxPoint x="323" y="280" as="targetPoint" />
          </mxGeometry>
        </mxCell>
        <mxCell id="FZAGzt3g0B7Yy9wffg4Y-24" value="Quiz" style="ellipse;whiteSpace=wrap;html=1;" parent="1" vertex="1">
          <mxGeometry x="300" y="420" width="80" height="40" as="geometry" />
        </mxCell>
        <mxCell id="FZAGzt3g0B7Yy9wffg4Y-26" value="Materi" style="ellipse;whiteSpace=wrap;html=1;" parent="1" vertex="1">
          <mxGeometry x="300" y="480" width="80" height="40" as="geometry" />
        </mxCell>
        <mxCell id="FZAGzt3g0B7Yy9wffg4Y-27" value="Kursus" style="ellipse;whiteSpace=wrap;html=1;" parent="1" vertex="1">
          <mxGeometry x="300" y="540" width="80" height="40" as="geometry" />
        </mxCell>
        <mxCell id="FZAGzt3g0B7Yy9wffg4Y-28" value="Penilaian" style="ellipse;whiteSpace=wrap;html=1;" parent="1" vertex="1">
          <mxGeometry x="520" y="450" width="80" height="40" as="geometry" />
        </mxCell>
        <mxCell id="FZAGzt3g0B7Yy9wffg4Y-29" value="" style="endArrow=classic;html=1;rounded=0;entryX=0;entryY=0.5;entryDx=0;entryDy=0;" parent="1" source="FZAGzt3g0B7Yy9wffg4Y-2" target="FZAGzt3g0B7Yy9wffg4Y-24" edge="1">
          <mxGeometry width="50" height="50" relative="1" as="geometry">
            <mxPoint x="390" y="380" as="sourcePoint" />
            <mxPoint x="440" y="330" as="targetPoint" />
          </mxGeometry>
        </mxCell>
        <mxCell id="FZAGzt3g0B7Yy9wffg4Y-30" value="" style="endArrow=classic;html=1;rounded=0;entryX=0;entryY=0.5;entryDx=0;entryDy=0;" parent="1" source="FZAGzt3g0B7Yy9wffg4Y-2" target="FZAGzt3g0B7Yy9wffg4Y-26" edge="1">
          <mxGeometry width="50" height="50" relative="1" as="geometry">
            <mxPoint x="220" y="493" as="sourcePoint" />
            <mxPoint x="310" y="450" as="targetPoint" />
          </mxGeometry>
        </mxCell>
        <mxCell id="FZAGzt3g0B7Yy9wffg4Y-31" value="" style="endArrow=classic;html=1;rounded=0;" parent="1" source="FZAGzt3g0B7Yy9wffg4Y-2" target="FZAGzt3g0B7Yy9wffg4Y-27" edge="1">
          <mxGeometry width="50" height="50" relative="1" as="geometry">
            <mxPoint x="230" y="503" as="sourcePoint" />
            <mxPoint x="320" y="460" as="targetPoint" />
          </mxGeometry>
        </mxCell>
        <mxCell id="FZAGzt3g0B7Yy9wffg4Y-33" value="Pelajaran" style="ellipse;whiteSpace=wrap;html=1;" parent="1" vertex="1">
          <mxGeometry x="610" y="163" width="80" height="40" as="geometry" />
        </mxCell>
        <mxCell id="FZAGzt3g0B7Yy9wffg4Y-37" value="Materi" style="ellipse;whiteSpace=wrap;html=1;" parent="1" vertex="1">
          <mxGeometry x="610" y="220" width="80" height="40" as="geometry" />
        </mxCell>
        <mxCell id="FZAGzt3g0B7Yy9wffg4Y-38" value="Quiz" style="ellipse;whiteSpace=wrap;html=1;" parent="1" vertex="1">
          <mxGeometry x="610" y="280" width="80" height="40" as="geometry" />
        </mxCell>
        <mxCell id="FZAGzt3g0B7Yy9wffg4Y-39" value="Penilaian" style="ellipse;whiteSpace=wrap;html=1;" parent="1" vertex="1">
          <mxGeometry x="620" y="350" width="80" height="40" as="geometry" />
        </mxCell>
        <mxCell id="FZAGzt3g0B7Yy9wffg4Y-45" value="" style="endArrow=none;dashed=1;html=1;rounded=0;exitX=0.989;exitY=0.702;exitDx=0;exitDy=0;exitPerimeter=0;" parent="1" source="FZAGzt3g0B7Yy9wffg4Y-5" target="FZAGzt3g0B7Yy9wffg4Y-4" edge="1">
          <mxGeometry width="50" height="50" relative="1" as="geometry">
            <mxPoint x="390" y="380" as="sourcePoint" />
            <mxPoint x="440" y="330" as="targetPoint" />
          </mxGeometry>
        </mxCell>
        <mxCell id="FZAGzt3g0B7Yy9wffg4Y-46" value="Include" style="edgeLabel;html=1;align=center;verticalAlign=middle;resizable=0;points=[];" parent="FZAGzt3g0B7Yy9wffg4Y-45" vertex="1" connectable="0">
          <mxGeometry x="0.0921" y="-2" relative="1" as="geometry">
            <mxPoint as="offset" />
          </mxGeometry>
        </mxCell>
        <mxCell id="FZAGzt3g0B7Yy9wffg4Y-47" value="" style="endArrow=none;dashed=1;html=1;rounded=0;exitX=1;exitY=0.5;exitDx=0;exitDy=0;entryX=0.07;entryY=0.252;entryDx=0;entryDy=0;entryPerimeter=0;" parent="1" source="FZAGzt3g0B7Yy9wffg4Y-6" target="FZAGzt3g0B7Yy9wffg4Y-4" edge="1">
          <mxGeometry width="50" height="50" relative="1" as="geometry">
            <mxPoint x="389" y="128" as="sourcePoint" />
            <mxPoint x="490" y="282" as="targetPoint" />
          </mxGeometry>
        </mxCell>
        <mxCell id="FZAGzt3g0B7Yy9wffg4Y-48" value="Include" style="edgeLabel;html=1;align=center;verticalAlign=middle;resizable=0;points=[];" parent="FZAGzt3g0B7Yy9wffg4Y-47" vertex="1" connectable="0">
          <mxGeometry x="0.0921" y="-2" relative="1" as="geometry">
            <mxPoint as="offset" />
          </mxGeometry>
        </mxCell>
        <mxCell id="FZAGzt3g0B7Yy9wffg4Y-49" value="" style="endArrow=none;dashed=1;html=1;rounded=0;exitX=1;exitY=0;exitDx=0;exitDy=0;entryX=-0.002;entryY=0.325;entryDx=0;entryDy=0;entryPerimeter=0;" parent="1" source="FZAGzt3g0B7Yy9wffg4Y-7" target="FZAGzt3g0B7Yy9wffg4Y-4" edge="1">
          <mxGeometry width="50" height="50" relative="1" as="geometry">
            <mxPoint x="399" y="138" as="sourcePoint" />
            <mxPoint x="500" y="292" as="targetPoint" />
          </mxGeometry>
        </mxCell>
        <mxCell id="FZAGzt3g0B7Yy9wffg4Y-50" value="Include" style="edgeLabel;html=1;align=center;verticalAlign=middle;resizable=0;points=[];" parent="FZAGzt3g0B7Yy9wffg4Y-49" vertex="1" connectable="0">
          <mxGeometry x="0.0921" y="-2" relative="1" as="geometry">
            <mxPoint as="offset" />
          </mxGeometry>
        </mxCell>
        <mxCell id="FZAGzt3g0B7Yy9wffg4Y-51" value="" style="endArrow=none;dashed=1;html=1;rounded=0;exitX=1;exitY=0.5;exitDx=0;exitDy=0;entryX=0;entryY=0.5;entryDx=0;entryDy=0;" parent="1" source="FZAGzt3g0B7Yy9wffg4Y-8" target="FZAGzt3g0B7Yy9wffg4Y-4" edge="1">
          <mxGeometry width="50" height="50" relative="1" as="geometry">
            <mxPoint x="409" y="148" as="sourcePoint" />
            <mxPoint x="510" y="302" as="targetPoint" />
          </mxGeometry>
        </mxCell>
        <mxCell id="FZAGzt3g0B7Yy9wffg4Y-52" value="Include" style="edgeLabel;html=1;align=center;verticalAlign=middle;resizable=0;points=[];" parent="FZAGzt3g0B7Yy9wffg4Y-51" vertex="1" connectable="0">
          <mxGeometry x="0.0921" y="-2" relative="1" as="geometry">
            <mxPoint as="offset" />
          </mxGeometry>
        </mxCell>
        <mxCell id="FZAGzt3g0B7Yy9wffg4Y-53" value="" style="endArrow=none;dashed=1;html=1;rounded=0;exitX=1;exitY=0.5;exitDx=0;exitDy=0;" parent="1" source="FZAGzt3g0B7Yy9wffg4Y-9" edge="1">
          <mxGeometry width="50" height="50" relative="1" as="geometry">
            <mxPoint x="419" y="158" as="sourcePoint" />
            <mxPoint x="470" y="320" as="targetPoint" />
          </mxGeometry>
        </mxCell>
        <mxCell id="FZAGzt3g0B7Yy9wffg4Y-54" value="Include" style="edgeLabel;html=1;align=center;verticalAlign=middle;resizable=0;points=[];" parent="FZAGzt3g0B7Yy9wffg4Y-53" vertex="1" connectable="0">
          <mxGeometry x="0.0921" y="-2" relative="1" as="geometry">
            <mxPoint as="offset" />
          </mxGeometry>
        </mxCell>
        <mxCell id="FZAGzt3g0B7Yy9wffg4Y-55" value="" style="endArrow=none;dashed=1;html=1;rounded=0;exitX=1;exitY=0.5;exitDx=0;exitDy=0;" parent="1" source="FZAGzt3g0B7Yy9wffg4Y-10" target="FZAGzt3g0B7Yy9wffg4Y-4" edge="1">
          <mxGeometry width="50" height="50" relative="1" as="geometry">
            <mxPoint x="429" y="168" as="sourcePoint" />
            <mxPoint x="490" y="340" as="targetPoint" />
          </mxGeometry>
        </mxCell>
        <mxCell id="FZAGzt3g0B7Yy9wffg4Y-56" value="Include" style="edgeLabel;html=1;align=center;verticalAlign=middle;resizable=0;points=[];" parent="FZAGzt3g0B7Yy9wffg4Y-55" vertex="1" connectable="0">
          <mxGeometry x="0.0921" y="-2" relative="1" as="geometry">
            <mxPoint as="offset" />
          </mxGeometry>
        </mxCell>
        <mxCell id="FZAGzt3g0B7Yy9wffg4Y-57" value="" style="endArrow=none;dashed=1;html=1;rounded=0;exitX=0;exitY=1;exitDx=0;exitDy=0;entryX=1;entryY=0;entryDx=0;entryDy=0;" parent="1" source="FZAGzt3g0B7Yy9wffg4Y-4" target="FZAGzt3g0B7Yy9wffg4Y-24" edge="1">
          <mxGeometry width="50" height="50" relative="1" as="geometry">
            <mxPoint x="439" y="178" as="sourcePoint" />
            <mxPoint x="540" y="332" as="targetPoint" />
          </mxGeometry>
        </mxCell>
        <mxCell id="FZAGzt3g0B7Yy9wffg4Y-58" value="Include" style="edgeLabel;html=1;align=center;verticalAlign=middle;resizable=0;points=[];" parent="FZAGzt3g0B7Yy9wffg4Y-57" vertex="1" connectable="0">
          <mxGeometry x="0.0921" y="-2" relative="1" as="geometry">
            <mxPoint as="offset" />
          </mxGeometry>
        </mxCell>
        <mxCell id="FZAGzt3g0B7Yy9wffg4Y-59" value="" style="endArrow=none;dashed=1;html=1;rounded=0;entryX=-0.007;entryY=0.266;entryDx=0;entryDy=0;entryPerimeter=0;" parent="1" source="FZAGzt3g0B7Yy9wffg4Y-24" target="FZAGzt3g0B7Yy9wffg4Y-28" edge="1">
          <mxGeometry width="50" height="50" relative="1" as="geometry">
            <mxPoint x="449" y="188" as="sourcePoint" />
            <mxPoint x="550" y="342" as="targetPoint" />
          </mxGeometry>
        </mxCell>
        <mxCell id="FZAGzt3g0B7Yy9wffg4Y-60" value="Extend" style="edgeLabel;html=1;align=center;verticalAlign=middle;resizable=0;points=[];" parent="FZAGzt3g0B7Yy9wffg4Y-59" vertex="1" connectable="0">
          <mxGeometry x="0.0921" y="-2" relative="1" as="geometry">
            <mxPoint as="offset" />
          </mxGeometry>
        </mxCell>
        <mxCell id="FZAGzt3g0B7Yy9wffg4Y-62" value="" style="endArrow=none;dashed=1;html=1;rounded=0;exitX=0.5;exitY=1;exitDx=0;exitDy=0;entryX=1;entryY=0.5;entryDx=0;entryDy=0;" parent="1" source="FZAGzt3g0B7Yy9wffg4Y-4" target="FZAGzt3g0B7Yy9wffg4Y-26" edge="1">
          <mxGeometry width="50" height="50" relative="1" as="geometry">
            <mxPoint x="459" y="198" as="sourcePoint" />
            <mxPoint x="560" y="352" as="targetPoint" />
          </mxGeometry>
        </mxCell>
        <mxCell id="FZAGzt3g0B7Yy9wffg4Y-63" value="Include" style="edgeLabel;html=1;align=center;verticalAlign=middle;resizable=0;points=[];" parent="FZAGzt3g0B7Yy9wffg4Y-62" vertex="1" connectable="0">
          <mxGeometry x="0.0921" y="-2" relative="1" as="geometry">
            <mxPoint as="offset" />
          </mxGeometry>
        </mxCell>
        <mxCell id="FZAGzt3g0B7Yy9wffg4Y-64" value="" style="endArrow=none;dashed=1;html=1;rounded=0;entryX=1;entryY=0.5;entryDx=0;entryDy=0;" parent="1" source="FZAGzt3g0B7Yy9wffg4Y-4" target="FZAGzt3g0B7Yy9wffg4Y-27" edge="1">
          <mxGeometry width="50" height="50" relative="1" as="geometry">
            <mxPoint x="469" y="208" as="sourcePoint" />
            <mxPoint x="570" y="362" as="targetPoint" />
          </mxGeometry>
        </mxCell>
        <mxCell id="FZAGzt3g0B7Yy9wffg4Y-65" value="Include" style="edgeLabel;html=1;align=center;verticalAlign=middle;resizable=0;points=[];" parent="FZAGzt3g0B7Yy9wffg4Y-64" vertex="1" connectable="0">
          <mxGeometry x="0.0921" y="-2" relative="1" as="geometry">
            <mxPoint x="-12" y="43" as="offset" />
          </mxGeometry>
        </mxCell>
        <mxCell id="FZAGzt3g0B7Yy9wffg4Y-66" value="" style="endArrow=none;dashed=1;html=1;rounded=0;exitX=0;exitY=0.5;exitDx=0;exitDy=0;" parent="1" source="FZAGzt3g0B7Yy9wffg4Y-33" target="FZAGzt3g0B7Yy9wffg4Y-4" edge="1">
          <mxGeometry width="50" height="50" relative="1" as="geometry">
            <mxPoint x="479" y="218" as="sourcePoint" />
            <mxPoint x="580" y="372" as="targetPoint" />
          </mxGeometry>
        </mxCell>
        <mxCell id="FZAGzt3g0B7Yy9wffg4Y-67" value="Include" style="edgeLabel;html=1;align=center;verticalAlign=middle;resizable=0;points=[];" parent="FZAGzt3g0B7Yy9wffg4Y-66" vertex="1" connectable="0">
          <mxGeometry x="0.0921" y="-2" relative="1" as="geometry">
            <mxPoint as="offset" />
          </mxGeometry>
        </mxCell>
        <mxCell id="FZAGzt3g0B7Yy9wffg4Y-68" value="" style="endArrow=none;dashed=1;html=1;rounded=0;exitX=0;exitY=0.5;exitDx=0;exitDy=0;entryX=0.925;entryY=0.74;entryDx=0;entryDy=0;entryPerimeter=0;" parent="1" source="FZAGzt3g0B7Yy9wffg4Y-37" target="FZAGzt3g0B7Yy9wffg4Y-4" edge="1">
          <mxGeometry width="50" height="50" relative="1" as="geometry">
            <mxPoint x="489" y="228" as="sourcePoint" />
            <mxPoint x="590" y="382" as="targetPoint" />
          </mxGeometry>
        </mxCell>
        <mxCell id="FZAGzt3g0B7Yy9wffg4Y-69" value="Include" style="edgeLabel;html=1;align=center;verticalAlign=middle;resizable=0;points=[];" parent="FZAGzt3g0B7Yy9wffg4Y-68" vertex="1" connectable="0">
          <mxGeometry x="0.0921" y="-2" relative="1" as="geometry">
            <mxPoint as="offset" />
          </mxGeometry>
        </mxCell>
        <mxCell id="FZAGzt3g0B7Yy9wffg4Y-70" value="" style="endArrow=none;dashed=1;html=1;rounded=0;exitX=0;exitY=0.25;exitDx=0;exitDy=0;exitPerimeter=0;entryX=1;entryY=1;entryDx=0;entryDy=0;" parent="1" source="FZAGzt3g0B7Yy9wffg4Y-38" target="FZAGzt3g0B7Yy9wffg4Y-4" edge="1">
          <mxGeometry width="50" height="50" relative="1" as="geometry">
            <mxPoint x="499" y="238" as="sourcePoint" />
            <mxPoint x="600" y="392" as="targetPoint" />
          </mxGeometry>
        </mxCell>
        <mxCell id="FZAGzt3g0B7Yy9wffg4Y-71" value="Include" style="edgeLabel;html=1;align=center;verticalAlign=middle;resizable=0;points=[];" parent="FZAGzt3g0B7Yy9wffg4Y-70" vertex="1" connectable="0">
          <mxGeometry x="0.0921" y="-2" relative="1" as="geometry">
            <mxPoint as="offset" />
          </mxGeometry>
        </mxCell>
        <mxCell id="FZAGzt3g0B7Yy9wffg4Y-72" value="" style="endArrow=none;dashed=1;html=1;rounded=0;exitX=1;exitY=1;exitDx=0;exitDy=0;entryX=0;entryY=0.5;entryDx=0;entryDy=0;" parent="1" source="FZAGzt3g0B7Yy9wffg4Y-4" target="FZAGzt3g0B7Yy9wffg4Y-39" edge="1">
          <mxGeometry width="50" height="50" relative="1" as="geometry">
            <mxPoint x="509" y="248" as="sourcePoint" />
            <mxPoint x="610" y="402" as="targetPoint" />
          </mxGeometry>
        </mxCell>
        <mxCell id="FZAGzt3g0B7Yy9wffg4Y-73" value="Include" style="edgeLabel;html=1;align=center;verticalAlign=middle;resizable=0;points=[];" parent="FZAGzt3g0B7Yy9wffg4Y-72" vertex="1" connectable="0">
          <mxGeometry x="0.0921" y="-2" relative="1" as="geometry">
            <mxPoint as="offset" />
          </mxGeometry>
        </mxCell>
      </root>
    </mxGraphModel>
  </diagram>
</mxfile>
